# xmcd
#
# Track frame offsets: 
#        150
#        12195
#        29396
#        39215
#        54588
#        65622
#        80402
#        93324
#        106542
#        122642
#        134753
#        150967
#        166331
#
# Disc length: 2497 seconds
#
# Revision: 0
# Processed by: cddbd v1.5.2PL0 Copyright (c) Steve Scherf et al.
# Submitted via: ExactAudioCopy v1.0b4
#
DISCID=9709bf0d
DTITLE=The Bloodshots - On Fire
DYEAR=2013
DGENRE=Rockabilly
TTITLE0=Rollin' Out
TTITLE1=Straight From Hell
TTITLE2=You Can't Break My Soul
TTITLE3=La La La Love
TTITLE4=Baby Plase
TTITLE5=Nothing With You
TTITLE6=I Still Love You
TTITLE7=You're a Cat
TTITLE8=Hearts On Fire
TTITLE9=Long Gone, So Long
TTITLE10=Waste Away
TTITLE11=Watchu Do
TTITLE12=I Gotta Go
EXTD=
EXTT0=
EXTT1=
EXTT2=
EXTT3=
EXTT4=
EXTT5=
EXTT6=
EXTT7=
EXTT8=
EXTT9=
EXTT10=
EXTT11=
EXTT12=
PLAYORDER=
